#!OML:ASF I:\Actors\actors\Patient Classification 2\Patient 1\Session 1\actor1.ASF
:FULLY-SPECIFIED
:DEGREES
92
root -0.696685 18.7679 5.34396 3.9983 -1.56261 -1.76551
lowerback 6.59535 1.20863 -2.31487
upperback 2.07419 1.46305 0.357555
thorax -1.62483 0.729228 1.55134
lowerneck -14.0794 -3.04501 -3.8004
upperneck 33.4561 -4.76971 3.99541
head 13.9204 -2.01569 1.50915
rclavicle -5.2181e-015 3.97569e-015
rhumerus -8.34789 47.111 -69.0429
rradius 89.7802
rwrist -0.499423
rhand -24.9975 -47.3425
rfingers 7.12502
rthumb 1.51394 -77.3169
lclavicle -5.2181e-015 3.97569e-015
lhumerus 0.655363 -46.2753 69.9492
lradius 82.7654
lwrist 16.6667
lhand -17.7047 -29.5416
lfingers 7.12502
lthumb 8.55529 0.265068
rfemur 0 0 0
rtibia 0
rfoot 0 0
rtoes 0
lfemur -7.73208 -6.84442 -12.1152
ltibia 21.3231
lfoot -22.9021 16.1101
ltoes -54.2545
93
root -0.68355 18.7676 5.33928 4.04267 -1.69649 -1.89068
lowerback 6.73786 1.28384 -1.96699
upperback 1.85402 1.57985 0.313686
thorax -1.92583 0.791879 1.29553
lowerneck -13.8158 -3.07157 -3.77832
upperneck 33.7025 -4.82208 3.96118
head 13.9726 -2.04223 1.48939
rclavicle -3.08116e-015 -1.2921e-014
rhumerus -7.45826 47.6223 -67.319
rradius 90.1431
rwrist -1.97996
rhand -23.0555 -47.7059
rfingers 7.12502
rthumb 3.38953 -77.6587
lclavicle -3.08116e-015 -1.2921e-014
lhumerus 2.05705 -46.9354 67.9499
lradius 83.4767
lwrist 19.2019
lhand -14.3639 -22.5876
lfingers 7.12502
lthumb 11.7782 7.06122
rfemur 0 0 0
rtibia 0
rfoot 0 0
rtoes 0
lfemur -7.76029 -7.08601 -12.0446
ltibia 21.3186
lfoot -23.1249 16.3807
ltoes -54.0452
94
root -0.773067 18.7627 5.39942 3.71541 -0.406634 -1.91687
lowerback 6.03632 0.951743 -3.2496
upperback 2.13063 1.08897 0.72153
thorax -1.26175 0.536088 2.49033
lowerneck -13.6684 -3.06626 -3.79803
upperneck 33.8334 -4.79792 3.90296
head 13.9957 -2.04327 1.47674
rclavicle 2.88238e-015 5.96354e-015
rhumerus -5.84337 48.2024 -65.0909
rradius 90.1043
rwrist -3.73592
rhand -20.8119 -48.081
rfingers 7.12502
rthumb 5.556 -77.9881
lclavicle 2.88238e-015 5.96354e-015
lhumerus 3.88413 -47.3242 65.8724
lradius 83.7452
lwrist 22.0535
lhand -11.6845 -16.4848
lfingers 7.12502
lthumb 14.361 12.9985
rfemur 0 0 0
rtibia 0
rfoot 0 0
rtoes 0
lfemur -7.44381 -6.20791 -11.4771
ltibia 21.3092
lfoot -22.1935 14.5464
ltoes -54.6885
95
root -0.692418 18.7669 5.3418 3.95848 -1.73708 -1.97694
lowerback 6.18698 1.28511 -2.36359
upperback 2.05461 1.57587 0.560226
thorax -1.42982 0.783376 1.78658
lowerneck -13.5505 -3.03494 -3.92079
upperneck 33.8197 -4.70823 3.87245
head 13.9611 -2.02614 1.50168
rclavicle -7.95139e-015 7.7526e-015
rhumerus -3.53819 48.8297 -62.5083
rradius 89.7088
rwrist -6.4129
rhand -18.9936 -49.0583
rfingers 7.12502
rthumb 7.31137 -78.912
lclavicle -7.95139e-015 7.7526e-015
lhumerus 6.05263 -47.3434 63.8044
lradius 83.3502
lwrist 24.6169
lhand -9.96226 -12.1603
lfingers 7.12502
lthumb 16.02 17.1973
rfemur 0 0 0
rtibia 0
rfoot 0 0
rtoes 0
lfemur -7.64815 -7.30112 -11.9462
ltibia 21.3567
lfoot -23.2343 16.5766
ltoes -54.0814
96
root -0.690774 18.7665 5.33649 3.93609 -1.81824 -1.95874
lowerback 6.62851 1.3813 -2.15979
upperback 1.72541 1.69995 0.396679
thorax -2.00998 0.854301 1.47959
lowerneck -13.0109 -3.09803 -3.89004
upperneck 34.0162 -4.86414 3.95483
head 13.9385 -2.08541 1.51392
rclavicle 2.76808e-014 -4.96962e-015
rhumerus -2.76838 49.2667 -61.4959
rradius 89.1515
rwrist -9.64567
rhand -18.0027 -50.1793
rfingers 7.12502
rthumb 8.26774 -79.9976
lclavicle 2.76808e-014 -4.96962e-015
lhumerus 7.6369 -48.0518 62.1103
lradius 82.63
lwrist 26.4903
lhand -8.86967 -9.4283
lfingers 7.12502
lthumb 17.0719 19.8416
rfemur 0 0 0
rtibia 0
rfoot 0 0
rtoes 0
lfemur -7.61145 -7.34914 -11.9868
ltibia 21.3363
lfoot -23.239 16.6472
ltoes -53.9915
97
root -0.693397 18.7667 5.32938 3.9478 -1.91496 -1.95823
lowerback 6.75382 1.45932 -2.08903
upperback 1.60715 1.80217 0.298494
thorax -2.20069 0.907618 1.3252
lowerneck -12.6044 -3.14194 -3.80137
upperneck 34.0134 -4.96534 3.95604
head 13.8492 -2.1237 1.48825
rclavicle 2.18663e-015 -1.59028e-015
rhumerus -1.58592 49.6511 -60.2958
rradius 88.335
rwrist -12.2824
rhand -17.5229 -50.8415
rfingers 7.12502
rthumb 8.73076 -80.641
lclavicle 2.18663e-015 -1.59028e-015
lhumerus 9.39456 -48.5364 60.5276
lradius 81.7317
lwrist 27.4823
lhand -8.33878 -7.35497
lfingers 7.12502
lthumb 17.5828 21.87
rfemur 0 0 0
rtibia 0
rfoot 0 0
rtoes 0
lfemur -7.67391 -7.28473 -11.9732
ltibia 21.4414
lfoot -23.3437 16.5768
ltoes -53.8382
98
root -0.696806 18.7667 5.32 3.99331 -2.01381 -1.95092
lowerback 6.58868 1.51863 -2.15573
upperback 1.68331 1.88024 0.266909
thorax -2.03436 0.944576 1.32873
lowerneck -12.2101 -3.16641 -3.82341
upperneck 33.7198 -5.03325 4.0755
head 13.6395 -2.14817 1.53133
rclavicle 6.75868e-015 -5.56597e-015
rhumerus 0.0613716 49.9316 -58.8542
rradius 87.1933
rwrist -13.3758
rhand -17.2619 -51.6037
rfingers 7.12502
rthumb 8.9826 -81.3925
lclavicle 6.75868e-015 -5.56597e-015
lhumerus 11.206 -48.7603 59.2199
lradius 80.6968
lwrist 28.1478
lhand -8.55113 -5.45772
lfingers 7.12502
lthumb 17.3785 23.7854
rfemur 0 0 0
rtibia 0
rfoot 0 0
rtoes 0
lfemur -7.70983 -7.27172 -11.9618
ltibia 21.4106
lfoot -23.4213 16.6025
ltoes -53.7096
99
root -0.699253 18.7663 5.30746 3.9985 -2.10321 -1.94234
lowerback 6.39289 1.51061 -2.46875
upperback 1.88476 1.85888 0.395293
thorax -1.73089 0.929759 1.64637
lowerneck -11.9583 -3.11336 -3.90751
upperneck 33.37 -4.92238 4.07306
head 13.4269 -2.11708 1.56123
rclavicle -3.13086e-015 3.77691e-015
rhumerus 1.59514 50.0004 -57.8444
rradius 85.8202
rwrist -13.3494
rhand -17.0035 -52.2051
rfingers 7.12502
rthumb 9.23194 -81.983
lclavicle -3.13086e-015 3.77691e-015
lhumerus 12.6134 -48.3741 58.632
lradius 79.5667
lwrist 28.9597
lhand -9.27285 -3.53148
lfingers 7.12502
lthumb 16.6838 25.7715
rfemur 0 0 0
rtibia 0
rfoot 0 0
rtoes 0
lfemur -7.70974 -7.31467 -11.9684
ltibia 21.37
lfoot -23.4718 16.7284
ltoes -53.6858
100
root -0.702514 18.7665 5.29383 3.95538 -2.16755 -1.96516
lowerback 6.79813 1.60929 -2.27092
upperback 1.80553 1.9887 0.272361
thorax -2.03324 0.997759 1.38595
lowerneck -11.5849 -3.16328 -3.93552
upperneck 33.2546 -5.03611 4.20481
head 13.3064 -2.1592 1.60492
rclavicle -6.4605e-016 -7.95139e-016
rhumerus 0.750358 49.0323 -59.4501
rradius 84.3694
rwrist -12.7502
rhand -16.5336 -52.2511
rfingers 7.12502
rthumb 9.68538 -82.0084
lclavicle -6.4605e-016 -7.95139e-016
lhumerus 13.5455 -48.3131 58.5682
lradius 78.4271
lwrist 30.0319
lhand -10.0978 -1.84658
lfingers 7.12502
lthumb 15.8894 27.5215
rfemur 0 0 0
rtibia 0
rfoot 0 0
rtoes 0
lfemur -7.66643 -7.28047 -11.939
ltibia 21.3224
lfoot -23.4732 16.7777
ltoes -53.7609
101
root -0.705583 18.7668 5.27973 3.9433 -2.24506 -1.98989
lowerback 6.90432 1.64822 -2.35094
upperback 1.9583 2.03535 0.354555
thorax -1.94238 1.0188 1.511
lowerneck -11.4785 -3.17112 -4.10284
upperneck 33.0846 -5.00361 4.22258
head 13.2138 -2.1657 1.64555
rclavicle -1.85367e-014 -1.25234e-014
rhumerus 2.18719 49.0536 -58.7813
rradius 82.9031
rwrist -13.5538
rhand -16.1949 -52.7746
rfingers 7.12502
rthumb 10.0121 -82.5164
lclavicle -1.85367e-014 -1.25234e-014
lhumerus 14.0935 -47.5342 59.2761
lradius 77.2428
lwrist 30.848
lhand -10.4917 -0.755236
lfingers 7.12502
lthumb 15.5101 28.6427
rfemur 0 0 0
rtibia 0
rfoot 0 0
rtoes 0
lfemur -7.65886 -7.26154 -11.9008
ltibia 21.2839
lfoot -23.5073 16.8109
ltoes -53.8663
102
root -0.707621 18.7683 5.26374 3.99538 -2.35734 -1.98789
lowerback 6.98368 1.69066 -2.46057
upperback 2.09543 2.08465 0.422179
thorax -1.85354 1.04114 1.63789
lowerneck -11.4039 -3.16415 -4.24029
upperneck 32.9435 -4.95565 4.23282
head 13.1388 -2.16188 1.68009
rclavicle -1.3418e-015 -7.95139e-016
rhumerus 3.46084 48.9435 -58.4583
rradius 81.3278
rwrist -13.704
rhand -15.8731 -53.2313
rfingers 7.12502
rthumb 10.3226 -82.958
lclavicle -1.3418e-015 -7.95139e-016
lhumerus 14.2033 -46.5448 60.5556
lradius 76.0781
lwrist 30.939
lhand -10.4169 -0.220423
lfingers 7.12502
lthumb 15.5821 29.1719
rfemur 0 0 0
rtibia 0
rfoot 0 0
rtoes 0
lfemur -7.72563 -7.3652 -11.8922
ltibia 21.2668
lfoot -23.6386 16.9393
ltoes -53.7678
103
root -0.710024 18.7719 5.2458 4.10436 -2.43318 -1.95588
lowerback 7.2026 1.74001 -2.44248
upperback 2.10948 2.14429 0.373037
thorax -1.96093 1.07172 1.56567
lowerneck -11.276 -3.15166 -4.19607
upperneck 32.8195 -4.92737 4.17987
head 13.0534 -2.15293 1.65604
rclavicle 1.15792e-014 -1.33186e-014
rhumerus 5.79208 49.8311 -56.8719
rradius 79.8277
rwrist -14.675
rhand -16.6382 -54.1583
rfingers 7.12502
rthumb 9.58441 -83.9203
lclavicle 1.15792e-014 -1.33186e-014
lhumerus 14.0303 -45.6278 62.1977
lradius 74.9452
lwrist 30.3473
lhand -10.3253 -0.0265508
lfingers 7.12502
lthumb 15.6704 29.3589
rfemur 0 0 0
rtibia 0
rfoot 0 0
rtoes 0
lfemur -7.89345 -7.39544 -11.9004
ltibia 21.2694
lfoot -23.6743 17.0537
ltoes -53.6528
104
root -0.712583 18.7754 5.22523 4.25507 -2.44305 -1.92646
lowerback 7.5089 1.78021 -2.30447
upperback 2.07906 2.19673 0.277192
thorax -2.15601 1.0996 1.37494
lowerneck -11.2009 -3.14833 -4.10528
upperneck 32.7289 -4.91824 4.11097
head 12.993 -2.14756 1.61463
rclavicle 1.07344e-014 3.18055e-015
rhumerus 6.25484 49.5595 -57.6093
rradius 78.1634
rwrist -14.1158
rhand -16.7106 -54.2002
rfingers 7.12502
rthumb 9.51458 -83.9654
lclavicle 1.07344e-014 3.18055e-015
lhumerus 13.7238 -44.8268 64.0306
lradius 73.9024
lwrist 29.4366
lhand -10.7101 -0.163254
lfingers 7.12502
lthumb 15.2998 29.2508
rfemur 0 0 0
rtibia 0
rfoot 0 0
rtoes 0
lfemur -8.14231 -7.41589 -11.8903
ltibia 21.284
lfoot -23.6127 17.1529
ltoes -53.6896
105
root -0.715608 18.7785 5.20457 4.40768 -2.44778 -1.93512
lowerback 7.90468 1.83586 -2.07281
upperback 2.03067 2.27491 0.166133
thorax -2.4156 1.14006 1.10976
lowerneck -11.2163 -3.1861 -4.21973
upperneck 32.753 -5.01892 4.34029
head 13.0231 -2.17568 1.70981
rclavicle 2.42517e-014 -1.07344e-014
rhumerus 5.22153 47.9646 -60.4139
rradius 76.2028
rwrist -12.2065
rhand -16.0156 -53.3195
rfingers 7.12502
rthumb 10.1851 -83.053
lclavicle 2.42517e-014 -1.07344e-014
lhumerus 13.3402 -44.1367 65.9491
lradius 72.9538
lwrist 28.7979
lhand -11.482 -0.353385
lfingers 7.12502
lthumb 14.5561 29.1159
rfemur 0 0 0
rtibia 0
rfoot 0 0
rtoes 0
lfemur -8.38614 -7.50221 -11.8387
ltibia 21.2934
lfoot -23.5768 17.2828
ltoes -53.736
106
root -0.720296 18.782 5.18551 4.5742 -2.45993 -1.9409
lowerback 8.13486 1.8904 -1.95542
upperback 2.06969 2.35038 0.128141
thorax -2.49942 1.17718 0.990403
lowerneck -11.348 -3.25714 -4.62536
upperneck 32.7264 -5.16539 4.80063
head 13.077 -2.22872 1.93779
rclavicle -7.35503e-015 1.78906e-015
rhumerus 8.08089 48.7056 -58.7241
rradius 74.2284
rwrist -13.5673
rhand -16.6256 -53.786
rfingers 7.12502
rthumb 9.59663 -83.5475
lclavicle -7.35503e-015 1.78906e-015
lhumerus 12.9517 -43.2551 68.061
lradius 72.0915
lwrist 28.429
lhand -12.0362 -0.0783905
lfingers 7.12502
lthumb 14.0221 29.4286
rfemur 0 0 0
rtibia 0
rfoot 0 0
rtoes 0
lfemur -8.63341 -7.53144 -11.7816
ltibia 21.2861
lfoot -23.5727 17.3593
ltoes -53.7559
